<svg viewBox="0 0 99.56 71.97" xmlns="http://www.w3.org/2000/svg"><g fill="#307472"><path d="m42.52 30.93a1.7 1.7 0 0 1 1.17.37 1.39 1.39 0 0 1 .43 1.09 1.44 1.44 0 0 1 -.38 1 1.51 1.51 0 0 1 -1.14.39h-.6v1.62h-1v-4.47zm-.52 2.07h.37a.81.81 0 0 0 .56-.17.64.64 0 0 0 .17-.44.57.57 0 0 0 -.2-.39.81.81 0 0 0 -.58-.17h-.32z"/><path d="m49.21 31.48a2.38 2.38 0 0 1 0 3.37 2.39 2.39 0 0 1 -1.73.65 2.48 2.48 0 0 1 -1.74-.65 2.3 2.3 0 0 1 -.69-1.67 2.45 2.45 0 0 1 .69-1.69 2.38 2.38 0 0 1 1.74-.66 2.41 2.41 0 0 1 1.73.65zm-2.71.69a1.32 1.32 0 0 0 -.4 1 1.34 1.34 0 0 0 .41 1 1.3 1.3 0 0 0 1 .37 1.35 1.35 0 0 0 1-.38 1.32 1.32 0 0 0 .39-1 1.33 1.33 0 0 0 -1.37-1.39 1.34 1.34 0 0 0 -1.03.4z"/><path d="m52.43 30.93a2.34 2.34 0 0 1 1.76.62 2.11 2.11 0 0 1 .65 1.6 2.14 2.14 0 0 1 -.61 1.58 2.43 2.43 0 0 1 -1.76.67h-1.47v-4.47zm-.38 3.6h.28a1.59 1.59 0 0 0 1-.3 1.36 1.36 0 0 0 .44-1.08 1.28 1.28 0 0 0 -.37-1 1.45 1.45 0 0 0 -1.08-.39h-.28z"/><path d="m59.91 31.48a2.4 2.4 0 0 1 0 3.37 2.4 2.4 0 0 1 -1.73.65 2.45 2.45 0 0 1 -1.74-.65 2.31 2.31 0 0 1 -.7-1.67 2.49 2.49 0 0 1 .69-1.69 2.64 2.64 0 0 1 3.48 0zm-2.72.69a1.36 1.36 0 0 0 -.39 1 1.31 1.31 0 0 0 .41 1 1.28 1.28 0 0 0 .95.37 1.39 1.39 0 0 0 1-.38 1.36 1.36 0 0 0 .38-1 1.4 1.4 0 0 0 -.38-1 1.42 1.42 0 0 0 -1-.39 1.36 1.36 0 0 0 -.97.4z"/><path d="m62.75 30.93v3.6h1.38v.87h-2.42v-4.47z"/><path d="m68.87 31.48a2.34 2.34 0 0 1 .7 1.69 2.29 2.29 0 0 1 -.7 1.68 2.39 2.39 0 0 1 -1.73.65 2.48 2.48 0 0 1 -1.74-.65 2.3 2.3 0 0 1 -.69-1.67 2.45 2.45 0 0 1 .69-1.69 2.38 2.38 0 0 1 1.74-.66 2.41 2.41 0 0 1 1.73.65zm-2.71.69a1.36 1.36 0 0 0 -.4 1 1.34 1.34 0 0 0 .41 1 1.3 1.3 0 0 0 1 .37 1.35 1.35 0 0 0 1-.38 1.32 1.32 0 0 0 .39-1 1.33 1.33 0 0 0 -1.37-1.39 1.34 1.34 0 0 0 -1.03.4z"/><path d="m72.83 33h2.22a2.92 2.92 0 0 1 -.69 1.88 2.05 2.05 0 0 1 -1.6.61 2.08 2.08 0 0 1 -1.63-.62 2.53 2.53 0 0 1 0-3.4 2.27 2.27 0 0 1 1.75-.65 2.19 2.19 0 0 1 1.25.34 2.48 2.48 0 0 1 .73.79l-.93.51a1.32 1.32 0 0 0 -.4-.48 1.11 1.11 0 0 0 -.68-.22 1.22 1.22 0 0 0 -.93.36 1.53 1.53 0 0 0 -.38 1.06 1.41 1.41 0 0 0 .38 1 1.19 1.19 0 0 0 .9.34 1.14 1.14 0 0 0 .78-.24 1 1 0 0 0 .32-.53h-1.09z"/><path d="m77.21 30.93v4.47h-1v-4.47z"/><path d="m81.07 31.8h-1.49v.87h1.42v.87h-1.42v1h1.49v.87h-2.53v-4.48h2.53z"/><path d="m41.39 39.87v3.5h1.08v.41h-1.47v-3.91z"/><path d="m42.94 41.83a2 2 0 1 1 2 2 2 2 0 0 1 -2-2zm.44 0a1.59 1.59 0 1 0 1.62-1.61 1.59 1.59 0 0 0 -1.62 1.61z"/><path d="m48.52 42.27a1 1 0 1 0 1.91 0v-2.4h.43v2.52a1.5 1.5 0 0 1 -.24.93 1.5 1.5 0 0 1 -2.29 0 1.5 1.5 0 0 1 -.24-.93v-2.52h.43z"/><path d="m52.6 39.87v3.91h-.44v-3.91z"/><path d="m55.64 40.65a.86.86 0 0 0 -.23-.3.67.67 0 0 0 -.44-.13.6.6 0 0 0 -.65.6.42.42 0 0 0 .14.34 1.46 1.46 0 0 0 .41.25l.38.16a1.9 1.9 0 0 1 .6.37.94.94 0 0 1 .28.71 1.17 1.17 0 0 1 -1.23 1.2 1.14 1.14 0 0 1 -.85-.32 1.37 1.37 0 0 1 -.37-.69l.43-.11a.9.9 0 0 0 .23.49.8.8 0 0 0 1.35-.55.56.56 0 0 0 -.2-.46 1.51 1.51 0 0 0 -.46-.27l-.36-.16a1.85 1.85 0 0 1 -.52-.33.79.79 0 0 1 -.27-.63 1 1 0 0 1 1.1-1 1.07 1.07 0 0 1 .63.17 1.35 1.35 0 0 1 .38.44z"/><path d="m59.25 40.28h-1.6v1.16h1.55v.41h-1.55v1.52h1.6v.41h-2v-3.91h2z"/><path d="m62 39.87h.8a2.11 2.11 0 0 1 1.44.46 1.9 1.9 0 0 1 .67 1.5 1.87 1.87 0 0 1 -.69 1.5 2 2 0 0 1 -1.43.45h-.79zm.43 3.5h.39a1.63 1.63 0 0 0 1.1-.37 1.48 1.48 0 0 0 .53-1.19 1.5 1.5 0 0 0 -1.64-1.55h-.39z"/><path d="m68 40.28h-1.58v1.16h1.58v.41h-1.58v1.52h1.58v.41h-2v-3.91h2z"/><path d="m71.46 39.87a1.43 1.43 0 0 1 .89.25.94.94 0 0 1 .36.81.89.89 0 0 1 -.39.76 1 1 0 0 1 .74 1 1 1 0 0 1 -.4.84 1.39 1.39 0 0 1 -.93.26h-1v-3.92zm-.27 1.72h.33a.66.66 0 0 0 .76-.65.67.67 0 0 0 -.75-.66h-.34zm0 1.78h.5a1.11 1.11 0 0 0 .68-.16.69.69 0 0 0 .26-.54.64.64 0 0 0 -.33-.58 1.45 1.45 0 0 0 -.67-.11h-.44z"/><path d="m76.18 40.28h-1.6v1.16h1.55v.41h-1.55v1.52h1.6v.41h-2v-3.91h2z"/><path d="m77.7 42.27a1 1 0 1 0 1.91 0v-2.4h.39v2.52a1.5 1.5 0 0 1 -.24.93 1.38 1.38 0 0 1 -1.15.53 1.35 1.35 0 0 1 -1.14-.53 1.51 1.51 0 0 1 -.25-.93v-2.52h.44z"/><path d="m81.77 39.87v3.5h1.08v.41h-1.51v-3.91z"/><path d="m85.75 40.28h-1.59v1.16h1.55v.41h-1.55v1.52h1.59v.41h-2v-3.91h2z"/><path d="m99.54 35.08a35.52 35.52 0 0 0 -43.87-33.24c-.56.13-1.11.28-1.65.44a1.63 1.63 0 0 0 .11.17 34.82 34.82 0 0 1 8.43-1.28 35.09 35.09 0 0 1 36.06 33.94 35.16 35.16 0 0 1 -9.35 25 35.12 35.12 0 0 1 -11 8 36.18 36.18 0 0 1 -6.47 2.25 34.81 34.81 0 0 1 -20.29-1.16 35.22 35.22 0 0 1 -17.25-13.65l-.19.05a35.57 35.57 0 0 0 65.47-20.52z"/></g><path d="m52.69 6.77a31.64 31.64 0 0 1 24.39.41 32 32 0 0 1 10.22 7.16 32.11 32.11 0 0 0 -10.2-7.22 32.35 32.35 0 0 0 -28.36.88l-.74 1.1a31.29 31.29 0 0 1 4.69-2.33z" fill="#61c0bd"/><path d="m94 24.88a32.26 32.26 0 0 0 -6.7-10.54 31.58 31.58 0 0 1 -1.39 45 31.64 31.64 0 0 1 -34.45 5.66 31.8 31.8 0 0 1 -15.7-15.5 7 7 0 0 1 -1 1.42 32.44 32.44 0 0 0 16.08 15.44 32.41 32.41 0 0 0 43.16-41.48z" fill="#61c0bd"/><path d="m31.43 38.21c.19 3.63 4.16 7.45 1.57 11-2 2.67-6.18 3.15-8.8 5.07a76.21 76.21 0 0 0 -7 6.14c-1.34 1.26-5.36 6.74-6.29 2.53.06.29-.07.62 0 .91 1 4.52 7.49-3.51 9-4.87a46.73 46.73 0 0 1 4.75-4.15c2.24-1.51 5.27-2 7.31-3.71 4.72-4-.34-9.3-.58-13.78v.87z" fill="#307472"/><path d="m7.72 63.93c0 .84.46 1.18 1.32 1.14a2.17 2.17 0 0 0 2-1.55c.07-.22-.07-.5 0-.72a2.18 2.18 0 0 1 -1.71 1.52c-.82.13-1.58-.1-1.59-1 0-.14 0 .12 0 .13v.5z" fill="#307472"/><path d="m5 64.3c.09.63.87.86 1.41.8a1.78 1.78 0 0 0 1.31-1.1c.11-.19-.1-.54 0-.73a1.78 1.78 0 0 1 -1.34 1.12c-.54.06-1.32-.17-1.41-.8v.73z" fill="#307472"/><path d="m3.16 62.53c-.21.51-.35 1.54.09 2a1.26 1.26 0 0 0 1.75-.14c.12-.16-.11-.57 0-.73a1.18 1.18 0 0 1 -1.25.34 1 1 0 0 1 -.57-.33s-.13-.33-.16-.34-.1.54 0 .27c0-.11.08-.24.12-.35s-.08-.52 0-.73z" fill="#307472"/><path d="m3.16 62.44c-.87.34-2.6.85-2.84-.68-.15-1 1.32-1.6 2.06-2.11a36.4 36.4 0 0 0 6.62-5.89 53.33 53.33 0 0 0 10.11-16.52c4.74-11.76 8.83-23.42 10.54-36.06.05-.3 0-.62 0-.91a120.33 120.33 0 0 1 -6.4 25.73c-2.41 6.49-4.77 13.42-8.39 19.33a55.84 55.84 0 0 1 -6.86 8.67 26.88 26.88 0 0 1 -4.51 4.08c-.94.61-2.82 1.32-3.29 2.45a2.16 2.16 0 0 0 3 2.82c.11 0-.1-.87 0-.91z" fill="#307472"/><path d="m48.17 4.35c-3.45 6-7.65 11.44-10.87 17.6-2.21 4.24-4.71 8.8-5.64 13.53-.83 4.24.13 9-4.39 11.11-.13.06.11.86 0 .91 4.29-2 3.59-6.24 4.24-10.32.81-5 3.46-9.86 5.79-14.32 3.22-6.16 7.42-11.62 10.87-17.6.13-.23-.13-.69 0-.91z" fill="#307472"/><path d="m13.31 49.61c-3.11 3.47-4.73 5.33-8.4 9.09-.28.29-.46.77-.09 1 .74.4 5.55-3.91 9.3-9 .32-.41.68-1 .44-1.28s-.75-.43-1.25.18" fill="#f7fbfc"/><path d="m18.39 44.61a.52.52 0 0 0 -.24-.32.74.74 0 0 0 -1 .28l-.31.45a10.14 10.14 0 0 1 -2.06 2.83.61.61 0 0 0 -.14.61.58.58 0 0 0 .37.38h.16c.24 0 .59-.16 1.4-1.14a16.43 16.43 0 0 0 1.66-2.42.92.92 0 0 0 .16-.67z" fill="#f7fbfc"/><path d="m4.1 60.27a.24.24 0 0 0 0-.18c-.41-.43-1.44.2-1.84.4s-.82.33-.95.67a2.37 2.37 0 0 0 0 .84v.18a.14.14 0 0 1 0-.07c.07.29.32.28.65.18a9.45 9.45 0 0 0 1.62-.57.83.83 0 0 0 .54-.64v-.08s0 0 0 0a4.85 4.85 0 0 0 -.02-.73z" fill="#f7fbfc"/><path d="m5.94 61.17c.76.23-.8 2.14-1.6 2.42a.75.75 0 0 1 -.51 0 .66.66 0 0 1 -.26-.91 1.91 1.91 0 0 1 .81-.68c.52-.25 1.17-1 1.56-.83z" fill="#f7fbfc"/><path d="m5.88 64c-.74-.63 1.19-2.25 2.1-2.3a.39.39 0 0 1 .35.11c.1.16 0 .4-.13.58-.54.85-1.58 2.08-2.32 1.61" fill="#f7fbfc"/><path d="m8.82 64c-.23 0-.65-.18-.58-.49.16-.75 1-1.15 1.58-1.53.34-.2.84-.32 1 0a.69.69 0 0 1 0 .38 1.93 1.93 0 0 1 -2 1.62" fill="#f7fbfc"/><path d="m12.29 64.45c-1.3 0 .18-1.77.93-2.3a2.07 2.07 0 0 1 .81-.36.94.94 0 0 1 .84.22c.21.29-.12.61-.43.84-.72.53-1.52 1.66-2.15 1.6" fill="#f7fbfc"/><path d="m20.17 55.5a53.2 53.2 0 0 0 -5 5c-.27.27-.39.78-.08 1 .57.35.55-.2 5.49-4.79.39-.37 1.17-1 1-1.27s-.74-.42-1.4.07" fill="#f7fbfc"/><path d="m7.7 60.47c4-3.49 5.62-4.79 8.66-8.74.23-.31.35-.8 0-1-.59-.32-4.4 4.22-9.33 8.56-.4.36-1 1.08-.75 1.37s.77.38 1.4-.15" fill="#f7fbfc"/><path d="m20.35 45.66c-.22-.35-.92 0-1.09.24s-.42.48-.7.82c-.44.53-1 1.2-1.58 1.84a1.39 1.39 0 0 0 -.26 1c0 .21.31.41.44.47h.06a.52.52 0 0 0 .47-.21l.26-.28a18.35 18.35 0 0 0 2.27-2.81 1.25 1.25 0 0 0 .13-1.07z" fill="#f7fbfc"/><path d="m19.82 53.89c.16.08.09.23.06.4a1.29 1.29 0 0 1 -.25.44c-2.73 3-1.91 2-5.11 5.2a6.21 6.21 0 0 1 -2.52 1.77.64.64 0 0 1 -.72-.47c-.1-.3.69-.84 1.49-1.57 1.13-1 1.4-1.26 3-2.83.78-.75 1.65-1.8 2.92-2.84a1.45 1.45 0 0 1 .53-.32.48.48 0 0 1 .54.22" fill="#f7fbfc"/><path d="m8.74 61.2c-.07-.12 0-.26.13-.42a2.83 2.83 0 0 1 .34-.42c2.9-2.83 4-3.56 6.83-6.64a5.4 5.4 0 0 1 1.86-1.57c.18-.07.45.19.43.55a3.94 3.94 0 0 1 -1.18 1.67c-1.53 1.55-1.92 2.1-3 3.06a35.59 35.59 0 0 1 -4.67 3.82 1.4 1.4 0 0 1 -.47.24c-.15 0-.28-.09-.25-.29" fill="#f7fbfc"/><path d="m22.58 46.88a.49.49 0 0 0 -.24-.39.37.37 0 0 0 -.35 0 3.21 3.21 0 0 0 -1 .83c-.67.88-1.1 1.36-1.6 1.91-.29.32-.62.69-1.05 1.19a.32.32 0 0 0 -.1.23v.11a.52.52 0 0 0 .05.27.38.38 0 0 0 .13.22.38.38 0 0 0 .23.08h.09a.65.65 0 0 0 .26-.14 10.17 10.17 0 0 0 1.33-1.26l.55-.6a8.27 8.27 0 0 0 .69-.81c.13-.17.28-.37.49-.63.54-.7.53-.89.52-1.01z" fill="#f7fbfc"/><path d="m24.8 47.41a1 1 0 0 1 .9-.66 7.76 7.76 0 0 1 1.18 0c1.5 0 2.77-1 4-1.9a2.05 2.05 0 0 1 1.61-.5 1.43 1.43 0 0 1 .9 1.65 3.46 3.46 0 0 1 -1 1.73 13.73 13.73 0 0 1 -4 3 1.78 1.78 0 0 1 -1 .25 1.55 1.55 0 0 1 -1.13-1 8.25 8.25 0 0 0 -.68-1.44c-.33-.44-.8-.53-.78-1.08" fill="#f7fbfc"/><path d="m24.09 48.27a8.68 8.68 0 0 1 1 2.58 2.31 2.31 0 0 1 .2 1.23 2.56 2.56 0 0 1 -.76 1.18 9.11 9.11 0 0 1 -1.34 1.22.79.79 0 0 1 -.46.17.87.87 0 0 1 -.4-.19l-2.22-1.59a.81.81 0 0 1 -.28-.27c-.2-.36.16-.74.48-1a10.75 10.75 0 0 0 1.79-1.71 4.87 4.87 0 0 0 .9-1.37c.11-.28.54-1 1.07-.25" fill="#f7fbfc"/><path d="m24.63 44c-1.22-.8-2.55-1.33-3.8-2.13a2.49 2.49 0 0 0 -1.73-.41 1.18 1.18 0 0 0 -1 1.28c.11.51.62.79 1.08 1s1.05.3 1.52.52c.62.3 1.14.75 1.76 1a3.33 3.33 0 0 0 1.36.43 1.19 1.19 0 0 0 1.1-.69.76.76 0 0 0 -.3-1" fill="#f7fbfc"/><path d="m35.27 24c-1.41 3.32-2.85 5.86-4.6 10.51a15.25 15.25 0 0 0 -1.05 3.79c-.18 1.85.31 3.81-.41 5.52a2.17 2.17 0 0 1 -.82 1 3.24 3.24 0 0 1 -2.39-.26c-.95-.4-1.26-1.9-.95-3.74.12-.68 1.4-1.9 2.41-3.92 1.82-3.66 1.84-6.31 3.19-10.16.77-2.21 2.59-7 3.35-9.19 1.6-4.73 4.25-10.15 6.33-15.91 1.91-.37 5.19 1.22 6.09 2.42a77.35 77.35 0 0 0 -6.16 10c-1.07 2-3 5.76-5 9.94" fill="#f7fbfc"/><path d="m22.76 40.93a2.92 2.92 0 0 1 -2.35.07 2.79 2.79 0 0 1 -.8-.7 2 2 0 0 1 -.39-.64 1.61 1.61 0 0 1 .32-1.45 1.65 1.65 0 0 1 1.2-.57 5.7 5.7 0 0 0 1.17 0c.51-.14.93-.61 1.45-.7a1.28 1.28 0 0 1 1.22.6 2.57 2.57 0 0 1 .42 1.46 1.68 1.68 0 0 1 -.22.89c-.47.7-1.11.82-2 1" fill="#f7fbfc"/><path d="m38.2 1.58c.18.12-2.17 4.84-3.76 8.7a155.82 155.82 0 0 0 -4.85 15.18 38.16 38.16 0 0 0 -1.52 6.54 4.89 4.89 0 0 1 -.26 1.38c-.19.43-.56.82-.94.8-.22 0-.42-.15-.64-.15-.64 0-1 1-1.43 1.59a1.8 1.8 0 0 1 -2.73.32 3.38 3.38 0 0 1 -.44-3.3 9.91 9.91 0 0 1 1.54-2.55 18.21 18.21 0 0 0 2.36-4c1.12-2.82 1.34-5.47 2-8.42.38-1.65 1-3.86 1.45-6 .4-1.85 2-8.5 2.3-11.51a10.74 10.74 0 0 1 6.92 1.42z" fill="#f7fbfc"/></svg>